<svg height="453pt" viewBox="0 -26 453.49855 453" width="453pt" xmlns="http://www.w3.org/2000/svg"><path d="m120.847656 113.503906h313.5l9.144532-40h-362.640626l40.402344 165.457032c4.253906 17.394531 19.675782 29.746093 37.578125 30.097656zm0 0" fill="#d4e1f4"/><path d="m324.070312 400.25c-24.667968 0-44.667968-19.996094-44.667968-44.667969 0-24.667969 19.996094-44.664062 44.664062-44.667969 24.671875 0 44.667969 20 44.667969 44.667969-.023437 24.65625-20.007813 44.640625-44.664063 44.667969zm0-69.332031c-13.625 0-24.667968 11.042969-24.667968 24.664062 0 13.625 11.042968 24.667969 24.664062 24.667969 13.625 0 24.667969-11.042969 24.667969-24.664062-.015625-13.617188-11.046875-24.652344-24.664063-24.667969zm0 0" fill="#1ae5be"/><path d="m188.808594 400.25c-24.667969 0-44.667969-19.996094-44.667969-44.667969 0-24.667969 19.996094-44.664062 44.664063-44.667969 24.671874 0 44.667968 20 44.667968 44.667969-.027344 24.65625-20.007812 44.640625-44.664062 44.667969zm0-69.332031c-13.625 0-24.667969 11.042969-24.667969 24.664062 0 13.625 11.042969 24.667969 24.664063 24.667969 13.625 0 24.667968-11.042969 24.667968-24.664062-.011718-13.617188-11.046875-24.652344-24.664062-24.667969zm0 0" fill="#1ae5be"/><path d="m443.492188 63.25h-354.84375l-6.242188-25.390625c-5.390625-22.148437-25.273438-37.703125-48.066406-37.609375h-24.339844c-5.523438 0-10 4.476562-10 10s4.476562 10 10 10h24.339844c13.597656-.023438 25.4375 9.273438 28.644531 22.484375l48.554687 198.691406c5.371094 22.195313 25.242188 37.828125 48.074219 37.824219h207.691407c23.128906.050781 43.191406-15.976562 48.242187-38.550781l37.699219-164.925781c.679687-3.011719-.027344-6.171876-1.929688-8.609376-1.882812-2.417968-4.757812-3.859374-7.824218-3.914062zm-47.4375 172.867188c-2.996094 13.484374-14.9375 23.09375-28.75 23.132812h-207.691407c-13.632812-.070312-25.460937-9.441406-28.644531-22.699219l-37.429688-153.300781h337.40625zm0 0" fill="#0635c9"/></svg>