<svg height="400pt" viewBox="0 -49 400 400" width="400pt" xmlns="http://www.w3.org/2000/svg"><path d="m50 90.34375c0-22.089844 17.910156-40 40-40h300c1.011719 0 2.007812.050781 3 .125v-3.695312c0-22.089844-17.910156-40-40-40h-300c-22.089844 0-40 17.910156-40 40v201.3125c.007812 20.925781 16.136719 38.308593 37 39.878906zm0 0" fill="#d4e1f4"/><path d="m160.285156 154.363281c-33.675781 0-60.976562-27.300781-60.976562-60.976562s27.300781-60.976563 60.976562-60.976563c33.675782 0 60.976563 27.300782 60.976563 60.976563-.039063 33.660156-27.316407 60.941406-60.976563 60.976562zm0-101.949219c-22.628906 0-40.976562 18.34375-40.976562 40.976563 0 22.628906 18.347656 40.972656 40.976562 40.972656s40.976563-18.34375 40.976563-40.972656c-.027344-22.621094-18.355469-40.953125-40.976563-40.976563zm0 0" fill="#1ae5be"/><path d="m400 50c0-27.613281-22.386719-50-50-50h-300c-27.613281 0-50 22.386719-50 50v201c0 27.613281 22.386719 50 50 50h300c27.613281 0 50-22.386719 50-50zm-350-30h300c16.542969 0 30 13.800781 30 30.34375v183.371094l-88.84375-57.070313c-13.265625-9.3125-31.351562-7.507812-42.519531 4.242188l-28.367188 29.558593-67.582031-41.925781c-11.667969-7.214843-26.582031-6.453125-37.457031 1.910157l-95.230469 63.070312v-183.15625c0-16.542969 13.457031-30.34375 30-30.34375zm-29.484375 237.324219 106.089844-70.351563c.238281-.160156.472656-.371094.699219-.550781 4.265624-3.390625 10.199218-3.746094 14.839843-.886719l63.96875 39.847656-54.175781 56.617188h-101.9375c-14.472656-.097656-26.839844-10.449219-29.484375-24.675781zm329.484375 24.675781h-170.34375l83.410156-87.09375c4.382813-4.660156 11.527344-5.382812 16.757813-1.699219.117187.082031.238281.121094.359375.199219l99.300781 63.941406c-2.648437 14.222656-15.019531 24.566406-29.484375 24.652344zm0 0" fill="#0635c9"/></svg>