<svg height="420pt" viewBox="-25 0 419 420" width="420pt" xmlns="http://www.w3.org/2000/svg"><path d="m124 50h236.300781c.003907-22.09375-17.90625-40.007812-40-40h-236.300781c-22.09375-.007812-40.007812 17.90625-40 40v320c-.007812 22.09375 17.90625 40.007812 40 40v-320c-.007812-22.09375 17.90625-40.007812 40-40zm0 0" fill="#d4e1f4"/><g fill="#1ae5be"><path d="m77.398438 71.601562h-66.898438c-5.523438 0-10 4.476563-10 10 0 5.519532 4.476562 10 10 10h66.898438c5.523437 0 10-4.480468 10-10 0-5.523437-4.476563-10-10-10zm0 0"/><path d="m77.398438 157.199219h-66.898438c-5.523438 0-10 4.476562-10 10 0 5.523437 4.476562 10 10 10h66.898438c5.523437 0 10-4.476563 10-10 0-5.523438-4.476563-10-10-10zm0 0"/><path d="m77.398438 242.800781h-66.898438c-5.523438 0-10 4.476563-10 10 0 5.523438 4.476562 10 10 10h66.898438c5.523437 0 10-4.476562 10-10 0-5.523437-4.476563-10-10-10zm0 0"/><path d="m77.398438 328.398438h-66.898438c-5.523438 0-10 4.480468-10 10 0 5.523437 4.476562 10 10 10h66.898438c5.523437 0 10-4.476563 10-10 0-5.519532-4.476563-10-10-10zm0 0"/></g><path d="m320.300781 0h-236.300781c-27.609375.0117188-49.988281 22.390625-50 50v320c.011719 27.609375 22.390625 49.988281 50 50h236.300781c27.609375-.011719 49.988281-22.390625 50-50v-320c-.046875-27.59375-22.40625-49.953125-50-50zm30 370c-.050781 16.546875-13.453125 29.953125-30 30h-236.300781c-16.546875-.046875-29.953125-13.453125-30-30v-320c.046875-16.546875 13.453125-29.953125 30-30h236.300781c16.546875.046875 29.949219 13.453125 30 30zm0 0" fill="#0635c9"/><path d="m202.101562 207.101562c26.785157 0 48.5-21.714843 48.5-48.5 0-26.789062-21.714843-48.5-48.5-48.5-26.789062 0-48.5 21.710938-48.5 48.5.023438 26.773438 21.722657 48.472657 48.5 48.5zm0-77.101562c15.738282 0 28.5 12.761719 28.5 28.5s-12.761718 28.5-28.5 28.5c-15.742187 0-28.5-12.761719-28.5-28.5.027344-15.726562 12.769532-28.472656 28.5-28.5zm0 0" fill="#0635c9"/><path d="m202.101562 223.199219c-41.601562 0-74.203124 33.699219-74.203124 76.800781.015624 5.515625 4.484374 9.984375 10 10h128.402343c5.515625-.015625 9.984375-4.484375 10-10 0-43.101562-32.601562-76.800781-74.199219-76.800781zm-53.402343 66.800781c4.300781-27.300781 25.800781-46.800781 53.402343-46.800781 27.597657 0 49.199219 19.5 53.398438 46.800781zm0 0" fill="#0635c9"/></svg>